<svg xmlns="http://www.w3.org/2000/svg" viewBox="0 0 600 600" width="600" height="600" role="img" aria-label="딥 비타C 브라이트닝 세럼">
  <defs>
    <linearGradient id="bg" x1="0" y1="0" x2="1" y2="1"><stop offset="0" stop-color="#fff6e6"/><stop offset="1" stop-color="#ffe0b8"/></linearGradient>
    <radialGradient id="glow" cx="0.32" cy="0.26" r="0.7"><stop offset="0" stop-color="#fff" stop-opacity="0.85"/><stop offset="1" stop-color="#fff" stop-opacity="0"/></radialGradient>
    <linearGradient id="glass" x1="0" y1="0" x2="1" y2="0"><stop offset="0" stop-color="#ffcf7a"/><stop offset="0.2" stop-color="#ffe6b8"/><stop offset="0.5" stop-color="#ffb347"/><stop offset="0.85" stop-color="#f59322"/><stop offset="1" stop-color="#e07d0e"/></linearGradient>
    <linearGradient id="cap" x1="0" y1="0" x2="0" y2="1"><stop offset="0" stop-color="#3a3f4a"/><stop offset="0.5" stop-color="#16181d"/><stop offset="1" stop-color="#2a2e37"/></linearGradient>
    <linearGradient id="metal" x1="0" y1="0" x2="1" y2="0"><stop offset="0" stop-color="#c9ccd3"/><stop offset="0.5" stop-color="#f4f5f7"/><stop offset="1" stop-color="#aeb2ba"/></linearGradient>
    <filter id="soft" x="-30%" y="-30%" width="160%" height="160%"><feGaussianBlur stdDeviation="10"/></filter>
  </defs>
  <rect width="600" height="600" fill="url(#bg)"/><rect width="600" height="600" fill="url(#glow)"/>
  <ellipse cx="300" cy="512" rx="126" ry="24" fill="#c07a12" opacity="0.3" filter="url(#soft)"/>

  <rect x="262" y="88" width="76" height="66" rx="10" fill="url(#cap)"/>
  <rect x="276" y="148" width="48" height="18" rx="4" fill="url(#metal)"/>
  <rect x="222" y="164" width="156" height="304" rx="26" fill="url(#glass)"/>
  <rect x="240" y="192" width="120" height="256" rx="16" fill="#ffb347" opacity="0.85"/>
  <rect x="236" y="184" width="18" height="270" rx="9" fill="#ffffff" opacity="0.5"/>
  <rect x="230" y="282" width="140" height="126" rx="12" fill="#ffffff" opacity="0.96"/>
  <text x="300" y="312" text-anchor="middle" font-family="Pretendard, sans-serif" font-size="15" font-weight="800" letter-spacing="2" fill="#2f6bff">GLOWLAB</text>
  <text x="300" y="350" text-anchor="middle" font-family="Pretendard, sans-serif" font-size="30" font-weight="900" fill="#e07d0e">VITA C</text>
  <text x="300" y="374" text-anchor="middle" font-family="Pretendard, sans-serif" font-size="13" font-weight="700" fill="#6b7280">브라이트닝 세럼</text>
  <text x="300" y="396" text-anchor="middle" font-family="Pretendard, sans-serif" font-size="11" font-weight="600" fill="#9aa0ab" letter-spacing="1">30ml</text>
</svg>
